# Blender 3.4.1
# www.blender.org
mtllib semi_map.mtl
o Plane
v -244.341965 -0.992417 121.729279
v 151.749252 -0.992417 121.729279
v -244.341965 -0.992388 -546.154175
v 151.749252 -0.992388 -546.154175
vn -0.0000 1.0000 -0.0000
vt 0.000000 0.000000
vt 1.000000 0.000000
vt 0.000000 1.000000
vt 1.000000 1.000000
s 0
usemtl Material.003
f 2/2/1 3/3/1 1/1/1
f 2/2/1 4/4/1 3/3/1
o road
v -46.344631 0.259802 -334.606689
v -46.569725 0.259802 -284.075531
v -196.532715 0.259793 -340.774323
v -196.744659 0.259793 -290.243103
v 10.690811 0.259802 -204.574524
v 9.163841 0.259802 -204.574524
v 4.992104 0.259802 -204.574524
v -0.706619 0.259802 -204.574524
v -6.405334 0.259802 -204.574524
v -10.577087 0.259802 -204.574524
v -12.104057 0.259802 -204.574524
v -10.577087 0.259802 -204.574524
v -6.405334 0.259802 -204.574524
v -0.706619 0.259802 -204.574524
v 4.992104 0.259802 -204.574524
v 9.163841 0.259802 -204.574524
v 10.203270 0.259803 -221.770264
v 8.689377 0.259803 -221.309509
v 4.553322 0.259803 -220.050690
v -1.096649 0.259803 -218.331131
v -6.746613 0.259802 -216.611557
v -10.882675 0.259802 -215.352737
v -12.396576 0.259802 -214.891968
v -10.882675 0.259802 -215.352737
v -6.746613 0.259802 -216.611557
v -1.096649 0.259803 -218.331131
v 4.553322 0.259803 -220.050690
v 8.689377 0.259803 -221.309509
v 8.749023 0.259803 -238.671799
v 7.274086 0.259803 -237.758163
v 3.244484 0.259803 -235.262070
v -2.260056 0.259803 -231.852341
v -7.764595 0.259803 -228.442612
v -11.794197 0.259803 -225.946533
v -13.269127 0.259803 -225.032898
v -11.794197 0.259803 -225.946533
v -7.764595 0.259803 -228.442612
v -2.260056 0.259803 -231.852341
v 3.244484 0.259803 -235.262070
v 7.274086 0.259803 -237.758163
v 6.352928 0.259804 -254.989899
v 4.942200 0.259804 -253.639023
v 1.088005 0.259804 -249.948364
v -4.176933 0.259804 -244.906830
v -9.441856 0.259804 -239.865295
v -13.296059 0.259803 -236.174637
v -14.706787 0.259803 -234.823761
v -13.296059 0.259803 -236.174637
v -9.441856 0.259804 -239.865295
v -4.176933 0.259804 -244.906830
v 1.088005 0.259804 -249.948364
v 4.942200 0.259804 -253.639023
v 3.055977 0.259805 -270.445404
v 1.733582 0.259805 -268.680420
v -1.879257 0.259805 -263.858337
v -6.814491 0.259804 -257.271240
v -11.749725 0.259804 -250.684143
v -15.362564 0.259804 -245.862061
v -16.684959 0.259804 -244.097061
v -15.362564 0.259804 -245.862061
v -11.749725 0.259804 -250.684143
v -6.814491 0.259804 -257.271240
v -1.879257 0.259805 -263.858337
v 1.733582 0.259805 -268.680420
v -1.085388 0.259805 -284.773804
v -2.296814 0.259805 -282.624878
v -5.606491 0.259805 -276.753876
v -10.127579 0.259805 -268.733948
v -14.648682 0.259804 -260.714050
v -17.958351 0.259804 -254.843018
v -19.169777 0.259804 -252.694092
v -17.958351 0.259804 -254.843018
v -14.648682 0.259804 -260.714050
v -10.127579 0.259805 -268.733948
v -5.606491 0.259805 -276.753876
v -2.296814 0.259805 -282.624878
v -6.000351 0.259806 -297.730011
v -7.080070 0.259806 -295.233917
v -10.029953 0.259806 -288.414459
v -14.059555 0.259805 -279.098938
v -18.089149 0.259805 -269.783386
v -21.039024 0.259805 -262.963928
v -22.118752 0.259804 -260.467804
v -21.039024 0.259805 -262.963928
v -18.089149 0.259805 -269.783386
v -14.059555 0.259805 -279.098938
v -10.029953 0.259806 -288.414459
v -7.080070 0.259806 -295.233917
v -11.604759 0.259807 -309.092255
v -12.534317 0.259806 -306.291718
v -15.073921 0.259806 -298.640503
v -18.543083 0.259806 -288.188721
v -22.012238 0.259805 -277.736938
v -24.551842 0.259805 -270.085693
v -25.481400 0.259805 -267.285156
v -24.551842 0.259805 -270.085693
v -22.012238 0.259805 -277.736938
v -18.543083 0.259806 -288.188721
v -15.073921 0.259806 -298.640503
v -12.534317 0.259806 -306.291718
v -17.802773 0.259807 -318.666199
v -18.566261 0.259807 -315.609131
v -20.652130 0.259806 -307.257050
v -23.501488 0.259806 -295.847900
v -26.350845 0.259805 -284.438721
v -28.436726 0.259805 -276.086609
v -29.200207 0.259805 -273.029541
v -28.436726 0.259805 -276.086609
v -26.350845 0.259805 -284.438721
v -23.501488 0.259806 -295.847900
v -20.652130 0.259806 -307.257050
v -18.566261 0.259807 -315.609131
v -24.488297 0.259807 -326.288025
v -25.072639 0.259807 -323.026672
v -26.669106 0.259807 -314.116638
v -28.849907 0.259806 -301.945312
v -31.030716 0.259806 -289.773956
v -32.627178 0.259805 -280.863922
v -33.211521 0.259805 -277.602600
v -32.627178 0.259805 -280.863922
v -31.030716 0.259806 -289.773956
v -28.849907 0.259806 -301.945312
v -26.669106 0.259807 -314.116638
v -25.072639 0.259807 -323.026672
v -31.546989 0.259808 -331.827271
v -31.942200 0.259807 -328.417542
v -33.021927 0.259807 -319.101990
v -34.496864 0.259806 -306.376709
v -35.971802 0.259806 -293.651428
v -37.051525 0.259805 -284.335876
v -37.446735 0.259805 -280.926178
v -37.051525 0.259805 -284.335876
v -35.971802 0.259806 -293.651428
v -34.496864 0.259806 -306.376709
v -33.021927 0.259807 -319.101990
v -31.942200 0.259807 -328.417542
v -38.858051 0.259808 -334.037354
v -39.057358 0.259807 -331.689392
v -39.601875 0.259807 -322.127747
v -40.345711 0.259807 -309.066284
v -41.089542 0.259806 -296.004791
v -41.634064 0.259806 -286.443115
v -41.833374 0.259805 -282.943329
v -41.634064 0.259806 -286.443115
v -41.089542 0.259806 -296.004791
v -40.345711 0.259807 -309.066284
v -39.601875 0.259807 -322.127747
v -39.057358 0.259807 -331.689392
v -46.504028 0.259808 -334.597778
v -46.915405 0.259808 -332.786255
v -46.915405 0.259807 -323.142090
v -46.296352 0.259807 -309.967926
v -46.915405 0.259806 -296.793762
v -46.915405 0.259806 -287.149597
v -46.915405 0.259805 -284.153625
v -46.915405 0.259806 -288.897278
v -46.915405 0.259806 -297.813141
v -46.915405 0.259807 -309.992401
v -46.915405 0.259807 -322.171661
v -46.915405 0.259808 -331.087524
v -46.532856 0.259802 -330.729492
v -46.574711 0.259802 -321.547577
v -46.631897 0.259802 -309.005005
v -46.689072 0.259802 -296.462341
v -46.730927 0.259802 -287.280487
v -12.102295 0.259802 -204.804474
v 10.856415 0.259802 -204.804474
v -12.102295 0.259793 8.722443
v 10.856415 0.259793 8.722443
vn -0.0000 1.0000 -0.0000
vn -0.0000 -1.0000 -0.0000
vt 0.000000 0.000000
vt 1.000000 0.000000
vt 0.000000 1.000000
vt 1.000000 1.000000
vt 0.500000 0.500000
vt 0.500000 0.583333
vt 0.500000 0.666667
vt 0.500000 0.750000
vt 0.500000 0.833333
vt 0.500000 0.916667
vt 0.500000 1.000000
vt 0.500000 0.000000
vt 0.500000 0.083333
vt 0.500000 0.166667
vt 0.500000 0.250000
vt 0.500000 0.333333
vt 0.500000 0.416667
vt 0.520833 0.500000
vt 0.520833 0.583333
vt 0.520833 0.666667
vt 0.520833 0.750000
vt 0.520833 0.833333
vt 0.520833 0.916667
vt 0.520833 1.000000
vt 0.520833 0.000000
vt 0.520833 0.083333
vt 0.520833 0.166667
vt 0.520833 0.250000
vt 0.520833 0.333333
vt 0.520833 0.416667
vt 0.541667 0.500000
vt 0.541667 0.583333
vt 0.541667 0.666667
vt 0.541667 0.750000
vt 0.541667 0.833333
vt 0.541667 0.916667
vt 0.541667 1.000000
vt 0.541667 0.000000
vt 0.541667 0.083333
vt 0.541667 0.166667
vt 0.541667 0.250000
vt 0.541667 0.333333
vt 0.541667 0.416667
vt 0.562500 0.500000
vt 0.562500 0.583333
vt 0.562500 0.666667
vt 0.562500 0.750000
vt 0.562500 0.833333
vt 0.562500 0.916667
vt 0.562500 1.000000
vt 0.562500 0.000000
vt 0.562500 0.083333
vt 0.562500 0.166667
vt 0.562500 0.250000
vt 0.562500 0.333333
vt 0.562500 0.416667
vt 0.583333 0.500000
vt 0.583333 0.583333
vt 0.583333 0.666667
vt 0.583333 0.750000
vt 0.583333 0.833333
vt 0.583333 0.916667
vt 0.583333 1.000000
vt 0.583333 0.000000
vt 0.583333 0.083333
vt 0.583333 0.166667
vt 0.583333 0.250000
vt 0.583333 0.333333
vt 0.583333 0.416667
vt 0.604167 0.500000
vt 0.604167 0.583333
vt 0.604167 0.666667
vt 0.604167 0.750000
vt 0.604167 0.833333
vt 0.604167 0.916667
vt 0.604167 1.000000
vt 0.604167 0.000000
vt 0.604167 0.083333
vt 0.604167 0.166667
vt 0.604167 0.250000
vt 0.604167 0.333333
vt 0.604167 0.416667
vt 0.625000 0.500000
vt 0.625000 0.583333
vt 0.625000 0.666667
vt 0.625000 0.750000
vt 0.625000 0.833333
vt 0.625000 0.916667
vt 0.625000 1.000000
vt 0.625000 0.000000
vt 0.625000 0.083333
vt 0.625000 0.166667
vt 0.625000 0.250000
vt 0.625000 0.333333
vt 0.625000 0.416667
vt 0.645833 0.500000
vt 0.645833 0.583333
vt 0.645833 0.666667
vt 0.645833 0.750000
vt 0.645833 0.833333
vt 0.645833 0.916667
vt 0.645833 1.000000
vt 0.645833 0.000000
vt 0.645833 0.083333
vt 0.645833 0.166667
vt 0.645833 0.250000
vt 0.645833 0.333333
vt 0.645833 0.416667
vt 0.666667 0.500000
vt 0.666667 0.583333
vt 0.666667 0.666667
vt 0.666667 0.750000
vt 0.666667 0.833333
vt 0.666667 0.916667
vt 0.666667 1.000000
vt 0.666667 0.000000
vt 0.666667 0.083333
vt 0.666667 0.166667
vt 0.666667 0.250000
vt 0.666667 0.333333
vt 0.666667 0.416667
vt 0.687500 0.500000
vt 0.687500 0.583333
vt 0.687500 0.666667
vt 0.687500 0.750000
vt 0.687500 0.833333
vt 0.687500 0.916667
vt 0.687500 1.000000
vt 0.687500 0.000000
vt 0.687500 0.083333
vt 0.687500 0.166667
vt 0.687500 0.250000
vt 0.687500 0.333333
vt 0.687500 0.416667
vt 0.708333 0.500000
vt 0.708333 0.583333
vt 0.708333 0.666667
vt 0.708333 0.750000
vt 0.708333 0.833333
vt 0.708333 0.916667
vt 0.708333 1.000000
vt 0.708333 0.000000
vt 0.708333 0.083333
vt 0.708333 0.166667
vt 0.708333 0.250000
vt 0.708333 0.333333
vt 0.708333 0.416667
vt 0.729167 0.500000
vt 0.729167 0.583333
vt 0.729167 0.666667
vt 0.729167 0.750000
vt 0.729167 0.833333
vt 0.729167 0.916667
vt 0.729167 1.000000
vt 0.729167 0.000000
vt 0.729167 0.083333
vt 0.729167 0.166667
vt 0.729167 0.250000
vt 0.729167 0.333333
vt 0.729167 0.416667
vt 0.750000 0.500000
vt 0.750000 0.583333
vt 0.750000 0.666667
vt 0.750000 0.750000
vt 0.750000 0.833333
vt 0.750000 0.916667
vt 0.750000 1.000000
vt 0.750000 0.000000
vt 0.750000 0.083333
vt 0.750000 0.166667
vt 0.750000 0.250000
vt 0.750000 0.333333
vt 0.750000 0.416667
vt 0.000000 0.000000
vt 1.000000 0.000000
vt 0.000000 1.000000
vt 1.000000 1.000000
s 0
usemtl Material.008
f 6/6/2 5/5/2 7/7/2
f 21/22/3 9/9/3 10/10/3
f 22/23/3 10/10/3 11/11/3
f 23/24/3 11/11/3 12/12/3
f 24/25/3 12/12/3 13/13/3
f 25/26/3 13/13/3 14/14/3
f 26/27/3 14/14/3 15/15/3
f 15/16/2 16/17/2 28/30/2
f 16/17/2 17/18/2 29/31/2
f 17/18/2 18/19/2 30/32/2
f 18/19/2 19/20/2 31/33/2
f 19/20/2 20/21/2 32/34/2
f 20/21/2 9/9/2 21/22/2
f 33/35/3 21/22/3 22/23/3
f 34/36/3 22/23/3 23/24/3
f 35/37/3 23/24/3 24/25/3
f 36/38/3 24/25/3 25/26/3
f 37/39/3 25/26/3 26/27/3
f 38/40/3 26/27/3 27/28/3
f 27/29/2 28/30/2 40/43/2
f 28/30/2 29/31/2 41/44/2
f 29/31/2 30/32/2 42/45/2
f 30/32/2 31/33/2 43/46/2
f 31/33/2 32/34/2 44/47/2
f 32/34/2 21/22/2 33/35/2
f 45/48/3 33/35/3 34/36/3
f 46/49/3 34/36/3 35/37/3
f 47/50/3 35/37/3 36/38/3
f 48/51/3 36/38/3 37/39/3
f 49/52/3 37/39/3 38/40/3
f 50/53/3 38/40/3 39/41/3
f 39/42/2 40/43/2 52/56/2
f 40/43/2 41/44/2 53/57/2
f 41/44/2 42/45/2 54/58/2
f 42/45/2 43/46/2 55/59/2
f 43/46/2 44/47/2 56/60/2
f 44/47/2 33/35/2 45/48/2
f 57/61/3 45/48/3 46/49/3
f 58/62/3 46/49/3 47/50/3
f 59/63/3 47/50/3 48/51/3
f 60/64/3 48/51/3 49/52/3
f 61/65/3 49/52/3 50/53/3
f 62/66/3 50/53/3 51/54/3
f 51/55/2 52/56/2 64/69/2
f 52/56/2 53/57/2 65/70/2
f 53/57/2 54/58/2 66/71/2
f 54/58/2 55/59/2 67/72/2
f 55/59/2 56/60/2 68/73/2
f 56/60/2 45/48/2 57/61/2
f 69/74/3 57/61/3 58/62/3
f 70/75/3 58/62/3 59/63/3
f 71/76/3 59/63/3 60/64/3
f 72/77/3 60/64/3 61/65/3
f 73/78/3 61/65/3 62/66/3
f 74/79/3 62/66/3 63/67/3
f 63/68/2 64/69/2 76/82/2
f 64/69/2 65/70/2 77/83/2
f 65/70/2 66/71/2 78/84/2
f 66/71/2 67/72/2 79/85/2
f 67/72/2 68/73/2 80/86/2
f 68/73/2 57/61/2 69/74/2
f 81/87/3 69/74/3 70/75/3
f 82/88/3 70/75/3 71/76/3
f 83/89/3 71/76/3 72/77/3
f 84/90/3 72/77/3 73/78/3
f 85/91/3 73/78/3 74/79/3
f 86/92/3 74/79/3 75/80/3
f 75/81/2 76/82/2 88/95/2
f 76/82/2 77/83/2 89/96/2
f 77/83/2 78/84/2 90/97/2
f 78/84/2 79/85/2 91/98/2
f 79/85/2 80/86/2 92/99/2
f 80/86/2 69/74/2 81/87/2
f 93/100/3 81/87/3 82/88/3
f 94/101/3 82/88/3 83/89/3
f 95/102/3 83/89/3 84/90/3
f 96/103/3 84/90/3 85/91/3
f 97/104/3 85/91/3 86/92/3
f 98/105/3 86/92/3 87/93/3
f 87/94/2 88/95/2 100/108/2
f 88/95/2 89/96/2 101/109/2
f 89/96/2 90/97/2 102/110/2
f 90/97/2 91/98/2 103/111/2
f 91/98/2 92/99/2 104/112/2
f 92/99/2 81/87/2 93/100/2
f 105/113/3 93/100/3 94/101/3
f 106/114/3 94/101/3 95/102/3
f 107/115/3 95/102/3 96/103/3
f 108/116/3 96/103/3 97/104/3
f 109/117/3 97/104/3 98/105/3
f 110/118/3 98/105/3 99/106/3
f 99/107/2 100/108/2 112/121/2
f 100/108/2 101/109/2 113/122/2
f 101/109/2 102/110/2 114/123/2
f 102/110/2 103/111/2 115/124/2
f 103/111/2 104/112/2 116/125/2
f 104/112/2 93/100/2 105/113/2
f 117/126/3 105/113/3 106/114/3
f 118/127/3 106/114/3 107/115/3
f 119/128/3 107/115/3 108/116/3
f 120/129/3 108/116/3 109/117/3
f 121/130/3 109/117/3 110/118/3
f 122/131/3 110/118/3 111/119/3
f 111/120/2 112/121/2 124/134/2
f 112/121/2 113/122/2 125/135/2
f 113/122/2 114/123/2 126/136/2
f 114/123/2 115/124/2 127/137/2
f 115/124/2 116/125/2 128/138/2
f 116/125/2 105/113/2 117/126/2
f 129/139/3 117/126/3 118/127/3
f 130/140/3 118/127/3 119/128/3
f 131/141/3 119/128/3 120/129/3
f 132/142/3 120/129/3 121/130/3
f 133/143/3 121/130/3 122/131/3
f 134/144/3 122/131/3 123/132/3
f 123/133/2 124/134/2 136/147/2
f 124/134/2 125/135/2 137/148/2
f 125/135/2 126/136/2 138/149/2
f 126/136/2 127/137/2 139/150/2
f 127/137/2 128/138/2 140/151/2
f 128/138/2 117/126/2 129/139/2
f 141/152/3 129/139/3 130/140/3
f 142/153/3 130/140/3 131/141/3
f 143/154/3 131/141/3 132/142/3
f 144/155/3 132/142/3 133/143/3
f 145/156/3 133/143/3 134/144/3
f 146/157/3 134/144/3 135/145/3
f 135/146/2 136/147/2 148/160/2
f 136/147/2 137/148/2 149/161/2
f 137/148/2 138/149/2 150/162/2
f 138/149/2 139/150/2 151/163/2
f 139/150/2 140/151/2 152/164/2
f 140/151/2 129/139/2 141/152/2
f 153/165/3 141/152/3 142/153/3
f 154/166/3 142/153/3 143/154/3
f 155/167/3 143/154/3 144/155/3
f 156/168/3 144/155/3 145/156/3
f 157/169/3 145/156/3 146/157/3
f 158/170/3 146/157/3 147/158/3
f 147/159/2 148/160/2 160/173/2
f 148/160/2 149/161/2 161/174/2
f 149/161/2 150/162/2 162/175/2
f 150/162/2 151/163/2 163/176/2
f 151/163/2 152/164/2 164/177/2
f 152/164/2 141/152/2 153/165/2
f 171/179/2 170/178/2 172/180/2
f 6/6/2 7/7/2 8/8/2
f 21/22/3 10/10/3 22/23/3
f 22/23/3 11/11/3 23/24/3
f 23/24/3 12/12/3 24/25/3
f 24/25/3 13/13/3 25/26/3
f 25/26/3 14/14/3 26/27/3
f 26/27/3 15/15/3 27/28/3
f 15/16/2 28/30/2 27/29/2
f 16/17/2 29/31/2 28/30/2
f 17/18/2 30/32/2 29/31/2
f 18/19/2 31/33/2 30/32/2
f 19/20/2 32/34/2 31/33/2
f 20/21/2 21/22/2 32/34/2
f 33/35/3 22/23/3 34/36/3
f 34/36/3 23/24/3 35/37/3
f 35/37/3 24/25/3 36/38/3
f 36/38/3 25/26/3 37/39/3
f 37/39/3 26/27/3 38/40/3
f 38/40/3 27/28/3 39/41/3
f 27/29/2 40/43/2 39/42/2
f 28/30/2 41/44/2 40/43/2
f 29/31/2 42/45/2 41/44/2
f 30/32/2 43/46/2 42/45/2
f 31/33/2 44/47/2 43/46/2
f 32/34/2 33/35/2 44/47/2
f 45/48/3 34/36/3 46/49/3
f 46/49/3 35/37/3 47/50/3
f 47/50/3 36/38/3 48/51/3
f 48/51/3 37/39/3 49/52/3
f 49/52/3 38/40/3 50/53/3
f 50/53/3 39/41/3 51/54/3
f 39/42/2 52/56/2 51/55/2
f 40/43/2 53/57/2 52/56/2
f 41/44/2 54/58/2 53/57/2
f 42/45/2 55/59/2 54/58/2
f 43/46/2 56/60/2 55/59/2
f 44/47/2 45/48/2 56/60/2
f 57/61/3 46/49/3 58/62/3
f 58/62/3 47/50/3 59/63/3
f 59/63/3 48/51/3 60/64/3
f 60/64/3 49/52/3 61/65/3
f 61/65/3 50/53/3 62/66/3
f 62/66/3 51/54/3 63/67/3
f 51/55/2 64/69/2 63/68/2
f 52/56/2 65/70/2 64/69/2
f 53/57/2 66/71/2 65/70/2
f 54/58/2 67/72/2 66/71/2
f 55/59/2 68/73/2 67/72/2
f 56/60/2 57/61/2 68/73/2
f 69/74/3 58/62/3 70/75/3
f 70/75/3 59/63/3 71/76/3
f 71/76/3 60/64/3 72/77/3
f 72/77/3 61/65/3 73/78/3
f 73/78/3 62/66/3 74/79/3
f 74/79/3 63/67/3 75/80/3
f 63/68/2 76/82/2 75/81/2
f 64/69/2 77/83/2 76/82/2
f 65/70/2 78/84/2 77/83/2
f 66/71/2 79/85/2 78/84/2
f 67/72/2 80/86/2 79/85/2
f 68/73/2 69/74/2 80/86/2
f 81/87/3 70/75/3 82/88/3
f 82/88/3 71/76/3 83/89/3
f 83/89/3 72/77/3 84/90/3
f 84/90/3 73/78/3 85/91/3
f 85/91/3 74/79/3 86/92/3
f 86/92/3 75/80/3 87/93/3
f 75/81/2 88/95/2 87/94/2
f 76/82/2 89/96/2 88/95/2
f 77/83/2 90/97/2 89/96/2
f 78/84/2 91/98/2 90/97/2
f 79/85/2 92/99/2 91/98/2
f 80/86/2 81/87/2 92/99/2
f 93/100/3 82/88/3 94/101/3
f 94/101/3 83/89/3 95/102/3
f 95/102/3 84/90/3 96/103/3
f 96/103/3 85/91/3 97/104/3
f 97/104/3 86/92/3 98/105/3
f 98/105/3 87/93/3 99/106/3
f 87/94/2 100/108/2 99/107/2
f 88/95/2 101/109/2 100/108/2
f 89/96/2 102/110/2 101/109/2
f 90/97/2 103/111/2 102/110/2
f 91/98/2 104/112/2 103/111/2
f 92/99/2 93/100/2 104/112/2
f 105/113/3 94/101/3 106/114/3
f 106/114/3 95/102/3 107/115/3
f 107/115/3 96/103/3 108/116/3
f 108/116/3 97/104/3 109/117/3
f 109/117/3 98/105/3 110/118/3
f 110/118/3 99/106/3 111/119/3
f 99/107/2 112/121/2 111/120/2
f 100/108/2 113/122/2 112/121/2
f 101/109/2 114/123/2 113/122/2
f 102/110/2 115/124/2 114/123/2
f 103/111/2 116/125/2 115/124/2
f 104/112/2 105/113/2 116/125/2
f 117/126/3 106/114/3 118/127/3
f 118/127/3 107/115/3 119/128/3
f 119/128/3 108/116/3 120/129/3
f 120/129/3 109/117/3 121/130/3
f 121/130/3 110/118/3 122/131/3
f 122/131/3 111/119/3 123/132/3
f 111/120/2 124/134/2 123/133/2
f 112/121/2 125/135/2 124/134/2
f 113/122/2 126/136/2 125/135/2
f 114/123/2 127/137/2 126/136/2
f 115/124/2 128/138/2 127/137/2
f 116/125/2 117/126/2 128/138/2
f 129/139/3 118/127/3 130/140/3
f 130/140/3 119/128/3 131/141/3
f 131/141/3 120/129/3 132/142/3
f 132/142/3 121/130/3 133/143/3
f 133/143/3 122/131/3 134/144/3
f 134/144/3 123/132/3 135/145/3
f 123/133/2 136/147/2 135/146/2
f 124/134/2 137/148/2 136/147/2
f 125/135/2 138/149/2 137/148/2
f 126/136/2 139/150/2 138/149/2
f 127/137/2 140/151/2 139/150/2
f 128/138/2 129/139/2 140/151/2
f 141/152/3 130/140/3 142/153/3
f 142/153/3 131/141/3 143/154/3
f 143/154/3 132/142/3 144/155/3
f 144/155/3 133/143/3 145/156/3
f 145/156/3 134/144/3 146/157/3
f 146/157/3 135/145/3 147/158/3
f 135/146/2 148/160/2 147/159/2
f 136/147/2 149/161/2 148/160/2
f 137/148/2 150/162/2 149/161/2
f 138/149/2 151/163/2 150/162/2
f 139/150/2 152/164/2 151/163/2
f 140/151/2 141/152/2 152/164/2
f 153/165/3 142/153/3 154/166/3
f 154/166/3 143/154/3 155/167/3
f 155/167/3 144/155/3 156/168/3
f 156/168/3 145/156/3 157/169/3
f 157/169/3 146/157/3 158/170/3
f 158/170/3 147/158/3 159/171/3
f 147/159/2 160/173/2 159/172/2
f 148/160/2 161/174/2 160/173/2
f 149/161/2 162/175/2 161/174/2
f 150/162/2 163/176/2 162/175/2
f 151/163/2 164/177/2 163/176/2
f 152/164/2 153/165/2 164/177/2
f 171/179/2 172/180/2 173/181/2
l 165 166
l 166 167
l 167 168
l 168 169
